# xmcd
#
# Track frame offsets:
#  150
#  16248
#  29098
#  44563
#  57511
#  75529
#  92096
#  107514
#  120054
#  137392
#  157348
#  174681
#
# Disc length: 2540 seconds
#
# Revision: 0
# Processed by: cddbd v1.5.1PL2 Copyright (c) Steve Scherf et al.
# Submitted via: Collectorz.com_Music_Collector 6.9
#
DISCID=9709ea0c
DTITLE=Gretchen Wilson - All Jacked Up
DYEAR=2005
DGENRE=Country
TTITLE0=All Jacked Up
TTITLE1=California Girls
TTITLE2=Full Time Job
TTITLE3=Skoal Ring
TTITLE4=He Aint Even Cold Yet
TTITLE5=One Bud Wiser
TTITLE6=Politically Uncorrect (Feat. Merle Haggard)
TTITLE7=I Dont Feel Like Loving You Today
TTITLE8=Rebel Child
TTITLE9=Raining On Me
TTITLE10=Not Bad For A Bartender
TTITLE11=Good Morning Heartache
EXTD=
EXTT0=
EXTT1=
EXTT2=
EXTT3=
EXTT4=
EXTT5=
EXTT6=
EXTT7=
EXTT8=
EXTT9=
EXTT10=
EXTT11=
PLAYORDER=
